<svg version="1.1" viewBox="0.0 0.0 513.3937007874016 453.1128608923884" fill="none" stroke="none" stroke-linecap="square" stroke-miterlimit="10" xmlns:xlink="http://www.w3.org/1999/xlink" xmlns="http://www.w3.org/2000/svg"><clipPath id="p.0"><path d="m0 0l513.3937 0l0 453.11285l-513.3937 0l0 -453.11285z" clip-rule="nonzero"/></clipPath><g clip-path="url(#p.0)"><path fill="#000000" fill-opacity="0.0" d="m0 0l513.3937 0l0 453.11285l-513.3937 0z" fill-rule="evenodd"/><path fill="#90ee90" d="m36.71391 84.83727l252.00786 0l0 284.51233l-126.00392 71.12808l-126.00394 -71.12808z" fill-rule="evenodd"/><path stroke="#90ee90" stroke-width="1.0" stroke-linejoin="round" stroke-linecap="butt" d="m36.71391 84.83727l252.00786 0l0 284.51233l-126.00392 71.12808l-126.00394 -71.12808z" fill-rule="evenodd"/><path fill="#282c34" d="m115.84714 330.11917l46.866135 -151.77951l46.86615 151.77951z" fill-rule="evenodd"/><path stroke="#000000" stroke-width="1.0" stroke-linejoin="round" stroke-linecap="butt" d="m115.84714 330.11917l46.866135 -151.77951l46.86615 151.77951z" fill-rule="evenodd"/><path fill="#282c34" d="m113.931755 200.31485l0 0c0 -29.031921 21.842873 -52.56694 48.787407 -52.56694l0 0c12.939224 0 25.348495 5.5382843 34.497894 15.3965c9.149414 9.858215 14.289505 23.22882 14.289505 37.17044l0 0c0 29.031906 -21.842865 52.566925 -48.7874 52.566925l0 0c-26.944534 0 -48.787407 -23.535019 -48.787407 -52.566925z" fill-rule="evenodd"/><path stroke="#282c34" stroke-width="1.0" stroke-linejoin="round" stroke-linecap="butt" d="m113.931755 200.31485l0 0c0 -29.031921 21.842873 -52.56694 48.787407 -52.56694l0 0c12.939224 0 25.348495 5.5382843 34.497894 15.3965c9.149414 9.858215 14.289505 23.22882 14.289505 37.17044l0 0c0 29.031906 -21.842865 52.566925 -48.7874 52.566925l0 0c-26.944534 0 -48.787407 -23.535019 -48.787407 -52.566925z" fill-rule="evenodd"/><path fill="#90ee90" d="m319.43307 116.87008l0 0c0 -51.410316 41.232117 -93.08662 92.09448 -93.08662l0 0c24.424988 0 47.84958 9.80731 65.120636 27.264437c17.271057 17.457127 26.973846 41.134075 26.973846 65.822174l0 0c0 51.410316 -41.232086 93.08662 -92.09448 93.08662l0 0c-50.862366 0 -92.09448 -41.6763 -92.09448 -93.08662z" fill-rule="evenodd"/><path fill="#90ee90" d="m388.22046 203.5315l46.614197 0l0 239.77954l-46.614197 0z" fill-rule="evenodd"/><path fill="#90ee90" d="m341.50394 318.72046l93.322845 0l0 39.370087l-93.322845 0z" fill-rule="evenodd"/><path fill="#90ee90" d="m360.68503 358.10104l74.141754 0l0 65.95276l-74.141754 0z" fill-rule="evenodd"/><path fill="#90ee90" d="m335.09186 386.50525l53.13385 0l0 39.370087l-53.13385 0z" fill-rule="evenodd"/><path fill="#90ee90" d="m36.71391 87.72179l0 -51.11811l146.61417 51.11811z" fill-rule="evenodd"/><path fill="#90ee90" d="m288.73227 87.72179l0 -51.11811l-146.61417 51.11811z" fill-rule="evenodd"/></g></svg>